<svg xmlns="http://www.w3.org/2000/svg" xmlns:xlink="http://www.w3.org/1999/xlink" id="Layer_1" width="512" height="512" x="0" y="0" enable-background="new 0 0 512 512" version="1.1" viewBox="0 0 512 512" xml:space="preserve"><g id="Grid_1_"><g id="Layer_1_1_"><g id="Grid"><g><rect width="512" height="512" fill="none" stroke="#A9CCDB" stroke-miterlimit="10"/><line x1="0" x2="512" y1="480" y2="480" fill="none" stroke="#A9CCDB" stroke-miterlimit="10"/><line x1="0" x2="512" y1="448" y2="448" fill="none" stroke="#A9CCDB" stroke-miterlimit="10"/><line x1="0" x2="512" y1="416" y2="416" fill="none" stroke="#A9CCDB" stroke-miterlimit="10"/><line x1="0" x2="512" y1="384" y2="384" fill="none" stroke="#A9CCDB" stroke-miterlimit="10"/><line x1="0" x2="512" y1="352" y2="352" fill="none" stroke="#A9CCDB" stroke-miterlimit="10"/><line x1="0" x2="512" y1="320" y2="320" fill="none" stroke="#A9CCDB" stroke-miterlimit="10"/><line x1="0" x2="512" y1="288" y2="288" fill="none" stroke="#A9CCDB" stroke-miterlimit="10"/><line x1="0" x2="512" y1="256" y2="256" fill="none" stroke="#A9CCDB" stroke-miterlimit="10"/><line x1="0" x2="512" y1="224" y2="224" fill="none" stroke="#A9CCDB" stroke-miterlimit="10"/><line x1="0" x2="512" y1="192" y2="192" fill="none" stroke="#A9CCDB" stroke-miterlimit="10"/><line x1="0" x2="512" y1="160" y2="160" fill="none" stroke="#A9CCDB" stroke-miterlimit="10"/><line x1="0" x2="512" y1="128" y2="128" fill="none" stroke="#A9CCDB" stroke-miterlimit="10"/><line x1="0" x2="512" y1="96" y2="96" fill="none" stroke="#A9CCDB" stroke-miterlimit="10"/><line x1="0" x2="512" y1="64" y2="64" fill="none" stroke="#A9CCDB" stroke-miterlimit="10"/><line x1="0" x2="512" y1="32" y2="32" fill="none" stroke="#A9CCDB" stroke-miterlimit="10"/><line x1="480" x2="480" y1="0" y2="512" fill="none" stroke="#A9CCDB" stroke-miterlimit="10"/><line x1="448" x2="448" y1="0" y2="512" fill="none" stroke="#A9CCDB" stroke-miterlimit="10"/><line x1="416" x2="416" y1="0" y2="512" fill="none" stroke="#A9CCDB" stroke-miterlimit="10"/><line x1="384" x2="384" y1="0" y2="512" fill="none" stroke="#A9CCDB" stroke-miterlimit="10"/><line x1="352" x2="352" y1="0" y2="512" fill="none" stroke="#A9CCDB" stroke-miterlimit="10"/><line x1="320" x2="320" y1="0" y2="512" fill="none" stroke="#A9CCDB" stroke-miterlimit="10"/><line x1="288" x2="288" y1="0" y2="512" fill="none" stroke="#A9CCDB" stroke-miterlimit="10"/><line x1="256" x2="256" y1="0" y2="512" fill="none" stroke="#A9CCDB" stroke-miterlimit="10"/><line x1="224" x2="224" y1="0" y2="512" fill="none" stroke="#A9CCDB" stroke-miterlimit="10"/><line x1="192" x2="192" y1="0" y2="512" fill="none" stroke="#A9CCDB" stroke-miterlimit="10"/><line x1="160" x2="160" y1="0" y2="512" fill="none" stroke="#A9CCDB" stroke-miterlimit="10"/><line x1="128" x2="128" y1="0" y2="512" fill="none" stroke="#A9CCDB" stroke-miterlimit="10"/><line x1="96" x2="96" y1="0" y2="512" fill="none" stroke="#A9CCDB" stroke-miterlimit="10"/><line x1="64" x2="64" y1="0" y2="512" fill="none" stroke="#A9CCDB" stroke-miterlimit="10"/><line x1="32" x2="32" y1="0" y2="512" fill="none" stroke="#A9CCDB" stroke-miterlimit="10"/></g></g></g></g><path fill-rule="evenodd" d="M352,256L198.406,416L160,370.281L275.188,256L160,141.719L198.406,96L352,256z" clip-rule="evenodd"/></svg>